<svg width="15" height="16" viewBox="0 0 15 16" fill="none" xmlns="http://www.w3.org/2000/svg">
<path d="M14.6576 2.62506C14.4295 2.39887 14.1588 2.28575 13.8463 2.28575H12.6926V1.42858C12.6926 1.0358 12.5513 0.699467 12.2688 0.419705C11.9862 0.139943 11.6469 0 11.2501 0H10.6733C10.2766 0 9.93709 0.139944 9.65464 0.419737C9.37209 0.699467 9.23086 1.03583 9.23086 1.42861V2.28579H5.76946V1.42861C5.76946 1.03583 5.62817 0.699499 5.34568 0.419737C5.06325 0.139944 4.72371 0 4.32699 0H3.75011C3.35348 0 3.01391 0.139944 2.73142 0.419737C2.449 0.699467 2.30768 1.03583 2.30768 1.42861V2.28579H1.15392C0.841339 2.28579 0.570944 2.3989 0.342572 2.62509C0.114201 2.85125 0 3.11919 0 3.42869V14.8572C0 15.1665 0.114201 15.4344 0.342572 15.6607C0.570912 15.8869 0.841308 16 1.15392 16H13.8461C14.1586 16 14.4293 15.8869 14.6574 15.6607C14.8858 15.4345 15 15.1665 15 14.8572V3.42866C15 3.11907 14.8859 2.85125 14.6576 2.62506ZM10.3849 1.42871C10.3849 1.3453 10.4117 1.27679 10.4657 1.22334C10.5197 1.16983 10.5889 1.14303 10.6731 1.14303H11.2499C11.3342 1.14303 11.4031 1.16974 11.4574 1.22334C11.5114 1.27688 11.5384 1.3454 11.5384 1.42871V4.00004C11.5384 4.08341 11.5114 4.1518 11.4574 4.2054C11.4031 4.25885 11.3342 4.28571 11.2499 4.28571H10.6731C10.5889 4.28571 10.5197 4.25897 10.4657 4.2054C10.4117 4.15177 10.3849 4.08341 10.3849 4.00004V1.42871ZM3.46169 1.42871C3.46169 1.3453 3.48868 1.27679 3.54277 1.22334C3.59688 1.16983 3.66594 1.14303 3.75011 1.14303H4.32699C4.4112 1.14303 4.48037 1.16974 4.53433 1.22334C4.58836 1.27688 4.61548 1.3454 4.61548 1.42871V4.00004C4.61548 4.08341 4.58848 4.1519 4.53433 4.2054C4.48025 4.25885 4.4112 4.28571 4.32699 4.28571H3.75011C3.66594 4.28571 3.59679 4.25897 3.54277 4.2054C3.48881 4.15177 3.46169 4.08341 3.46169 4.00004V1.42871ZM13.8461 14.8571H1.15392V5.71432H13.8461V14.8571Z" fill="#7881CF"/>
</svg>
