<svg width="16" height="16" viewBox="0 0 16 16" fill="none" xmlns="http://www.w3.org/2000/svg">
<path d="M9.41502 8.00114L15.7068 1.70908C16.0977 1.31849 16.0977 0.684751 15.7068 0.294166C15.3159 -0.0967532 14.6829 -0.0967532 14.292 0.294166L8.00017 6.58623L1.70803 0.294166C1.31713 -0.0967532 0.68408 -0.0967532 0.293177 0.294166C-0.0977257 0.684751 -0.0977257 1.31849 0.293177 1.70908L6.58531 8.00114L0.293177 14.2932C-0.0977257 14.6838 -0.0977257 15.3175 0.293177 15.7081C0.488629 15.9032 0.744783 16.001 1.0006 16.001C1.25643 16.001 1.51258 15.9032 1.70803 15.7078L8.00017 9.41572L14.292 15.7078C14.4874 15.9032 14.7436 16.001 14.9994 16.001C15.2552 16.001 15.5114 15.9032 15.7068 15.7078C16.0977 15.3172 16.0977 14.6835 15.7068 14.2929L9.41502 8.00114Z" fill="white"/>
</svg>
