<svg width="16" height="13" viewBox="0 0 16 13" fill="none" xmlns="http://www.w3.org/2000/svg">
<path d="M15.1006 5.27263L15.1256 5.27798H4.41912L7.78485 1.97832C7.94966 1.81722 8.04007 1.59899 8.04007 1.36995C8.04007 1.1409 7.94966 0.9242 7.78485 0.762722L7.26114 0.250169C7.09646 0.0890733 6.87701 0 6.64299 0C6.40885 0 6.18927 0.0884372 6.02459 0.249533L0.255093 5.89284C0.0897596 6.05457 -0.000646921 6.27 3.48506e-06 6.49917C-0.000646921 6.72962 0.0897596 6.94518 0.255093 7.10665L6.02459 12.7505C6.18927 12.9114 6.40872 13 6.64299 13C6.87701 13 7.09646 12.9113 7.26114 12.7505L7.78485 12.2379C7.94966 12.0771 8.04007 11.8623 8.04007 11.6332C8.04007 11.4043 7.94966 11.2008 7.78485 11.0399L4.38114 7.72177H15.1126C15.5948 7.72177 16 7.31521 16 6.84376V6.11883C16 5.64738 15.5828 5.27263 15.1006 5.27263Z" fill="white"/>
</svg>
