<svg width="16" height="16" viewBox="0 0 16 16" fill="none" xmlns="http://www.w3.org/2000/svg">
<path d="M15.4146 6.83497L13.8296 6.57056C13.7144 6.09959 13.5465 5.64939 13.3277 5.2295L14.3424 3.97143C14.5581 3.70555 14.5483 3.323 14.3208 3.06639L13.6905 2.35695C13.462 2.10061 13.0831 2.04639 12.794 2.229L11.4386 3.08107C10.8425 2.66454 10.1672 2.35695 9.43867 2.17846L9.1735 0.58498C9.11786 0.247569 8.82589 0 8.48315 0H7.53321C7.19117 0 6.89821 0.247569 6.8438 0.58498L6.57718 2.17896C5.9749 2.32643 5.4102 2.56447 4.89486 2.87797L3.60582 1.958C3.32801 1.75952 2.94643 1.79055 2.70399 2.03248L2.03289 2.70409C1.79097 2.94653 1.75993 3.32813 1.95893 3.60595L2.88101 4.89749C2.57046 5.40895 2.33488 5.97045 2.18744 6.5674L0.584929 6.83499C0.248046 6.89063 0 7.18263 0 7.5254V8.47462C0 8.81735 0.248046 9.10938 0.584929 9.16503L2.18744 9.43262C2.30852 9.92383 2.4843 10.393 2.71794 10.8281L1.70793 12.0791C1.49287 12.3447 1.5019 12.7275 1.72941 12.9839L2.35929 13.6933C2.5878 13.9502 2.96691 14.0034 3.25598 13.8212L4.63094 12.9575C5.21272 13.3554 5.8709 13.6479 6.57718 13.8212L6.8438 15.415C6.89823 15.7524 7.19117 16 7.53321 16H8.48315C8.82589 16 9.11786 15.7524 9.1735 15.415L9.43912 13.8213C10.0339 13.6758 10.5914 13.4419 11.1022 13.1338L12.4449 14.0928C12.7222 14.292 13.1041 14.2607 13.3463 14.018L14.0177 13.3467C14.2593 13.1049 14.292 12.7236 14.0914 12.4452L13.1354 11.1049C13.4468 10.5917 13.6837 10.0292 13.8302 9.42961L15.4151 9.16497C15.753 9.10933 16 8.81731 16 8.47456L15.4146 6.83497C15.7525 6.89063 15.4141 6.49226 15.4146 6.83497ZM8.02512 11C6.36867 11 5.02521 9.65626 5.02521 8.00001C5.02521 6.3435 6.36867 5 8.02512 5C9.68129 5 11.025 6.3435 11.025 8.00001C11.025 9.65626 9.68129 11 8.02512 11Z" fill="white"/>
</svg>
