<svg width="13" height="16" viewBox="0 0 13 16" fill="none" xmlns="http://www.w3.org/2000/svg">
<path d="M6.32428 7.82505C8.1032 7.82505 9.54544 6.07337 9.54544 3.91255C9.54544 1.75168 9.07193 0 6.32428 0C3.57663 0 3.10303 1.75168 3.10303 3.91255C3.10303 6.07337 4.54527 7.82505 6.32428 7.82505Z" fill="#7881CF"/>
<path d="M0.240137 13.799C0.239587 13.6673 0.239037 13.7619 0.240137 13.799V13.799Z" fill="#7881CF"/>
<path d="M12.4082 13.9019C12.4099 13.8658 12.4088 13.6517 12.4082 13.9019V13.9019Z" fill="#7881CF"/>
<path d="M12.4012 13.641C12.3416 9.87679 11.85 8.80419 8.08799 8.12524C8.08799 8.12524 7.55843 8.80003 6.32415 8.80003C5.08986 8.80003 4.56022 8.12524 4.56022 8.12524C0.839304 8.79679 0.317796 9.85347 0.249225 13.5187C0.243602 13.818 0.240996 13.8337 0.23999 13.799C0.240219 13.8641 0.240493 13.9845 0.240493 14.1945C0.240493 14.1945 1.13613 16 6.32415 16C11.5121 16 12.4078 14.1945 12.4078 14.1945C12.4078 14.0596 12.4079 13.9657 12.408 13.9019C12.407 13.9234 12.405 13.8818 12.4012 13.641Z" fill="#7881CF"/>
</svg>
