<svg width="16" height="16" viewBox="0 0 16 16" fill="none" xmlns="http://www.w3.org/2000/svg">
<path d="M15.7102 0.290822C16.0451 0.686596 16.0908 1.24981 15.8472 1.98047C15.6037 2.71113 15.1927 3.36568 14.6142 3.94412L12.7762 5.78218L14.6028 13.7281C14.6409 13.8727 14.5952 13.9983 14.4658 14.1049L13.0045 15.2008C12.9512 15.2465 12.8789 15.2693 12.7876 15.2693C12.7571 15.2693 12.7305 15.2655 12.7077 15.2579C12.5935 15.2351 12.5136 15.1742 12.4679 15.0753L9.2827 9.27565L6.32581 12.2325L6.93089 14.4473C6.96894 14.5767 6.9385 14.6947 6.83955 14.8013L5.74356 15.8973C5.67507 15.9658 5.58754 16 5.48098 16H5.45815C5.34399 15.9848 5.25265 15.9353 5.18415 15.8516L3.02642 12.9746L0.149453 10.8169C0.0657317 10.7636 0.0162599 10.6761 0.00103787 10.5543C-0.00657317 10.4554 0.0276765 10.3602 0.103787 10.2689L1.19978 9.16148C1.26828 9.09299 1.3558 9.05874 1.46236 9.05874C1.50802 9.05874 1.53847 9.06254 1.55369 9.07015L3.7685 9.67523L6.72539 6.71834L0.925779 3.53312C0.819224 3.47223 0.75453 3.3809 0.731697 3.25913C0.716475 3.13735 0.750725 3.0346 0.834446 2.95088L2.29577 1.48956C2.40232 1.39062 2.51649 1.36017 2.63826 1.39823L10.2303 3.21346L12.0569 1.38681C12.6354 0.808372 13.2899 0.397376 14.0206 0.153823C14.7512 -0.0897301 15.3144 -0.0440639 15.7102 0.290822Z" fill="#FFFFFF"/>
</svg>
