<svg width="24" height="24" viewBox="0 0 24 24" fill="none" xmlns="http://www.w3.org/2000/svg">
  <circle cx="12" cy="12" r="12" fill="#7881CF"/>
  <path d="M11.4272 14.573L11.4272 14.573L7.98746 11.1332C7.98744 11.1332 7.98743 11.1331 7.98741 11.1331C7.6709 10.8167 7.67082 10.3036 7.98742 9.98727C7.98744 9.98724 7.98747 9.98721 7.9875 9.98718L8.16419 10.164C8.38292 9.94532 8.73768 9.94532 8.95639 10.164L11.4272 14.573ZM11.4272 14.573C11.5853 14.7311 11.7931 14.8103 12.0001 14.8103C12.207 14.8103 12.4146 14.7312 12.5728 14.5731L12.5728 14.5731M11.4272 14.573L12.5728 14.5731M9.13317 9.98728L12.0001 12.8542L14.8668 9.98736L14.8669 9.98732C15.1833 9.67104 15.6962 9.67098 16.0126 9.98732L9.13317 9.98728ZM9.13317 9.98728C9.13317 9.98728 9.13317 9.98727 9.13317 9.98727L9.13317 9.98728ZM12.5728 14.5731L16.0127 11.1332C16.0127 11.1332 16.0127 11.1332 16.0127 11.1332M12.5728 14.5731L16.0127 11.1332M16.0127 11.1332C16.3291 10.8168 16.3291 10.3037 16.0127 9.98736L16.0127 11.1332Z" fill="#D6DAFF" stroke="#D6DAFF" stroke-width="0.5"/>
</svg>
