<svg width="14" height="17" viewBox="0 0 14 17" fill="none" xmlns="http://www.w3.org/2000/svg">
<path d="M13.2855 13.4953L12.1409 11.5873C11.6122 10.7067 11.3329 9.698 11.3329 8.67134V7C11.3329 4.89 9.92487 3.10534 7.99952 2.53V1.33334C7.99952 0.598 7.40152 0 6.66618 0C5.93084 0 5.33284 0.598 5.33284 1.33334V2.53C3.40753 3.10534 1.99953 4.89 1.99953 7V8.67134C1.99953 9.698 1.72018 10.706 1.19218 11.5867L0.0475259 13.4947C-0.0144741 13.598 -0.0158178 13.726 0.043526 13.8307C0.10287 13.9353 0.21287 14 0.33287 14H12.9995C13.1195 14 13.2302 13.9354 13.2895 13.8314C13.3489 13.7273 13.3469 13.598 13.2855 13.4953Z" fill="white"/>
<path d="M4.56689 15C4.94289 15.7853 5.73889 16.3333 6.66621 16.3333C7.59352 16.3333 8.38955 15.7853 8.76555 15H4.56689Z" fill="white"/>
</svg>
