<svg width="22" height="24" viewBox="0 0 22 24" fill="none" xmlns="http://www.w3.org/2000/svg">
<path d="M5.9882 12.2974C5.9882 11.6511 5.53944 11.2654 4.74751 11.2654C4.42446 11.2654 4.20559 11.2965 4.09082 11.3278V13.403C4.22651 13.4338 4.3933 13.4444 4.62206 13.4444C5.46698 13.4444 5.9882 13.017 5.9882 12.2974Z" fill="white"/>
<path d="M10.8899 11.2863C10.535 11.2863 10.3062 11.3175 10.1702 11.3488V15.9467C10.3059 15.9785 10.5249 15.9785 10.7231 15.9785C12.1617 15.9886 13.1002 15.1965 13.1002 13.5178C13.1107 12.0575 12.2555 11.2863 10.8899 11.2863Z" fill="white"/>
<path d="M20.2822 8.58469H19.7059V5.80404C19.7059 5.7867 19.7032 5.76923 19.7008 5.75167C19.6999 5.64125 19.6648 5.5328 19.5892 5.44687L14.9619 0.160958C14.9605 0.159608 14.9592 0.159128 14.9582 0.157647C14.9306 0.126841 14.8985 0.10122 14.8645 0.0790412C14.8544 0.0722874 14.8443 0.066623 14.8337 0.0607842C14.8043 0.0447058 14.773 0.0313725 14.7409 0.0217429C14.7321 0.0193028 14.7243 0.0157298 14.7156 0.013464C14.6806 0.00518517 14.6443 0 14.6076 0H3.23536C2.71606 0 2.29419 0.422352 2.29419 0.941218V8.58447H1.71803C0.975154 8.58447 0.372803 9.18656 0.372803 9.9297V16.9251C0.372803 17.6677 0.975154 18.2702 1.71803 18.2702H2.29423V23.0588C2.29423 23.5776 2.71611 24 3.23541 24H18.7648C19.2836 24 19.7059 23.5776 19.7059 23.0588V18.2702H20.2822C21.0249 18.2702 21.6274 17.6677 21.6274 16.9251V9.92992C21.6273 9.18682 21.0249 8.58469 20.2822 8.58469ZM3.23536 0.941393H14.137V5.75676C14.137 6.01676 14.3479 6.22735 14.6076 6.22735H18.7647V8.58499H3.23536V0.941393ZM14.7891 13.465C14.7891 14.8104 14.2992 15.738 13.6205 16.3118C12.881 16.9269 11.7547 17.2187 10.3788 17.2187C9.5553 17.2187 8.97156 17.1665 8.57487 17.1146V10.212C9.1587 10.1183 9.92031 10.0662 10.7232 10.0662C12.057 10.0662 12.9227 10.3062 13.6007 10.8168C14.3302 11.359 14.7891 12.2242 14.7891 13.465ZM2.51641 17.1459V10.212C3.00622 10.129 3.69471 10.0662 4.66438 10.0662C5.64438 10.0662 6.34311 10.2539 6.81213 10.6295C7.26058 10.9838 7.56224 11.5678 7.56224 12.256C7.56224 12.9444 7.33348 13.5282 6.91609 13.9242C6.37396 14.4352 5.57122 14.6647 4.63257 14.6647C4.42438 14.6647 4.23606 14.6541 4.09074 14.6332V17.1461H2.51641V17.1459ZM18.7648 22.804H3.23536V18.2702H18.7647V22.804H18.7648ZM20.1285 11.4216H17.4274V13.0273H19.9509V14.3203H17.4274V17.1459H15.833V10.1183H20.1285V11.4216Z" fill="white"/>
</svg>
