<svg width="14" height="16" viewBox="0 0 14 16" fill="none" xmlns="http://www.w3.org/2000/svg">
<path d="M1.80005 0.000200031H12.2C12.457 0.000200031 12.7035 0.105556 12.8853 0.29309C13.0671 0.480624 13.1692 0.734974 13.1692 1.00019V2.50017H0.811428V1.00019C0.811402 0.867167 0.8371 0.735478 0.887016 0.612832C0.936933 0.490186 1.01006 0.379047 1.10213 0.285923C1.19419 0.1928 1.30334 0.119563 1.42318 0.0705016C1.54302 0.02144 1.67115 -0.00246037 1.80005 0.000200031ZM13.9518 15.5575C13.9802 15.6001 13.9967 15.6498 13.9996 15.7014C14.0024 15.753 13.9915 15.8044 13.968 15.85C13.9445 15.8956 13.9094 15.9337 13.8664 15.9602C13.8234 15.9866 13.7741 16.0004 13.7241 16H12.6943C12.6493 15.9999 12.6051 15.9884 12.5654 15.9666C12.5257 15.9448 12.4917 15.9134 12.4665 15.875L11.914 15.03H2.08597L1.53351 15.875C1.50827 15.9134 1.47433 15.9448 1.43464 15.9666C1.39494 15.9884 1.3507 15.9999 1.30574 16H0.275925C0.225859 16.0004 0.176646 15.9866 0.133637 15.9602C0.0906277 15.9337 0.0554696 15.8956 0.0319863 15.85C0.00850299 15.8044 -0.00240645 15.753 0.000444268 15.7014C0.00329498 15.6498 0.0197965 15.6001 0.0481548 15.5575L1.88728 12.75H1.80005C1.54299 12.75 1.29646 12.6447 1.1147 12.4571C0.932929 12.2696 0.830813 12.0153 0.830813 11.75V4.50015H13.1886V11.735C13.1886 12.0003 13.0865 12.2546 12.9047 12.4421C12.7229 12.6297 12.4764 12.735 12.2193 12.735H12.1127L13.9518 15.5575ZM3.74579 11.1251C4.04494 11.1251 4.33737 11.0335 4.58607 10.862C4.83477 10.6905 5.02856 10.4467 5.14293 10.1615C5.2573 9.87628 5.2871 9.56249 5.22857 9.25982C5.17003 8.95714 5.02578 8.67919 4.81408 8.46112C4.60238 8.24305 4.33274 8.09468 4.03928 8.03477C3.74582 7.97486 3.44173 8.00611 3.16549 8.12456C2.88925 8.24302 2.65327 8.44335 2.48742 8.70022C2.32157 8.95708 2.2333 9.25894 2.23378 9.56758C2.23378 9.77232 2.27291 9.97505 2.34892 10.1642C2.42494 10.3533 2.53635 10.5251 2.67679 10.6698C2.81722 10.8144 2.98392 10.9291 3.16735 11.0072C3.35078 11.0853 3.54734 11.1254 3.74579 11.1251ZM11.2574 14.03L10.419 12.75H3.58102L2.74021 14.04L11.2574 14.03ZM11.7638 9.56758C11.7643 9.25894 11.676 8.95708 11.5102 8.70022C11.3443 8.44335 11.1083 8.24302 10.8321 8.12456C10.5558 8.00611 10.2518 7.97486 9.9583 8.03477C9.66484 8.09468 9.3952 8.24305 9.18349 8.46112C8.97179 8.67919 8.82755 8.95714 8.76901 9.25982C8.71047 9.56249 8.74027 9.87628 8.85464 10.1615C8.96901 10.4467 9.16281 10.6905 9.41151 10.862C9.66021 11.0335 9.95264 11.1251 10.2518 11.1251C10.4503 11.1254 10.647 11.0854 10.8306 11.0073C11.0142 10.9292 11.181 10.8145 11.3216 10.6699C11.4623 10.5253 11.5739 10.3535 11.6502 10.1644C11.7265 9.97522 11.7659 9.77244 11.7662 9.56758H11.7638Z" fill="white"/>
</svg>
