<svg width="16" height="16" viewBox="0 0 16 16" fill="none" xmlns="http://www.w3.org/2000/svg">
<path fill-rule="evenodd" clip-rule="evenodd" d="M10.7604 0.062998C11.6101 -0.183774 12.4957 0.316346 12.7384 1.18005C12.7793 1.32536 12.8 1.47574 12.8 1.62687V2.98841H14.4C15.2837 2.98841 16 3.7166 16 4.61486V14.3735C16 15.2718 15.2837 16 14.4 16H1.6C0.716344 16 0 15.2718 0 14.3735H0.021361C0.00716082 14.2861 0 14.1975 0 14.1087V4.41506C0 3.68888 0.473564 3.05069 1.16045 2.85119L10.7604 0.062998ZM6.51208 14.3735H14.4V7.86775H12.8V6.24131H14.4V4.61486H12.8V11.3205C12.8 12.0466 12.3264 12.6848 11.6396 12.8843L6.51208 14.3735ZM1.6001 4.41504V14.1086L11.2001 11.3204V1.62685L1.6001 4.41504ZM9.6 6.24131C9.6 6.69044 9.24183 7.05453 8.8 7.05453C8.35817 7.05453 8 6.69044 8 6.24131C8 5.79218 8.35817 5.42809 8.8 5.42809C9.24183 5.42809 9.6 5.79218 9.6 6.24131Z" fill="white"/>
</svg>
